#!OML:ASF F:\VICON\USERDATA\INSTALL\rory3\rory3.ASF
:FULLY-SPECIFIED
:DEGREES
178
root -7.3793 17.9659 8.41781 -9.97927 55.0004 -8.339
lowerback 12.1389 1.62477 1.2628
upperback 1.23794 2.42697 1.14104
thorax -5.50343 1.19137 0.0788661
lowerneck -20.0325 -5.8366 -11.4243
upperneck 28.6698 -6.41626 6.88223
head 13.6973 -3.03899 3.55406
rclavicle 1.83578e-013 5.96354e-015
rhumerus -31.2814 -14.3029 -78.8465
rradius 24.6168
rwrist 11.8189
rhand -15.8117 7.64224
rfingers 7.12502
rthumb 10.3818 -22.0815
lclavicle 1.83578e-013 5.96354e-015
lhumerus -35.6093 13.1418 76.4684
lradius 28.338
lwrist -10.0513
lhand -16.3362 26.7738
lfingers 7.12502
lthumb 9.8758 56.5221
rfemur -2.60325 -3.48912 24.7777
rtibia 21.8655
rfoot -11.8107 2.72175
rtoes 2.25209
lfemur -17.4594 -1.52821 -16.3487
ltibia 57.8753
lfoot -0.72006 -11.9524
ltoes -4.07602
179
root -7.29332 17.978 8.49434 -9.99228 55.4126 -8.32876
lowerback 12.142 1.75098 1.31144
upperback 1.27728 2.5968 1.07421
thorax -5.45745 1.27378 -0.045881
lowerneck -19.5991 -5.7903 -10.8464
upperneck 28.1439 -6.34451 6.15106
head 13.3215 -3.04716 3.16668
rclavicle -4.75841e-014 5.96354e-015
rhumerus -31.021 -14.0901 -78.8813
rradius 24.6551
rwrist 11.7057
rhand -15.6848 7.89931
rfingers 7.12502
rthumb 10.5043 -21.8182
lclavicle -4.75841e-014 5.96354e-015
lhumerus -35.7018 12.9635 76.3551
lradius 28.5329
lwrist -9.77309
lhand -15.9482 26.2468
lfingers 7.12502
lthumb 10.2501 55.977
rfemur -2.17681 -3.83701 24.7449
rtibia 22.0348
rfoot -11.8229 2.40136
rtoes 2.14766
lfemur -18.1959 -1.1229 -16.4325
ltibia 57.2897
lfoot -1.68641 -11.0271
ltoes -4.23958
180
root -7.20862 17.9765 8.55886 -9.99202 55.8497 -8.37644
lowerback 12.1069 1.83284 1.39534
upperback 1.33787 2.71591 1.07592
thorax -5.36946 1.33205 -0.108383
lowerneck -19.5478 -5.82467 -10.9611
upperneck 28.0581 -6.33831 6.101
head 13.2781 -3.06314 3.1659
rclavicle 2.89729e-014 -8.15017e-015
rhumerus -30.6407 -14.1175 -78.683
rradius 24.6677
rwrist 11.8013
rhand -15.676 8.35556
rfingers 7.12502
rthumb 10.5127 -21.3615
lclavicle 2.89729e-014 -8.15017e-015
lhumerus -35.802 12.7146 76.4305
lradius 28.8445
lwrist -9.21813
lhand -15.8788 26.1276
lfingers 7.12502
lthumb 10.317 55.8546
rfemur -1.85111 -4.10346 24.7015
rtibia 22.1152
rfoot -12.1239 2.29115
rtoes 0.531462
lfemur -18.9934 -0.85716 -16.5062
ltibia 56.5909
lfoot -2.28016 -10.2202
ltoes -3.05719
181
root -7.12574 17.959 8.62147 -10.1876 56.2431 -8.6949
lowerback 12.0919 1.91013 1.64287
upperback 1.36863 2.85484 1.13294
thorax -5.31846 1.39684 -0.209178
lowerneck -19.6848 -5.92278 -11.3158
upperneck 28.2118 -6.38679 6.24092
head 13.3987 -3.10144 3.27424
rclavicle 2.34566e-014 4.77083e-015
rhumerus -30.3274 -14.0373 -78.4691
rradius 24.7868
rwrist 11.7091
rhand -15.8447 8.74325
rfingers 7.12502
rthumb 10.35 -20.982
lclavicle 2.34566e-014 4.77083e-015
lhumerus -35.8742 12.6267 76.543
lradius 29.1018
lwrist -8.74131
lhand -16.1142 26.4224
lfingers 7.12502
lthumb 10.09 56.1605
rfemur -1.63045 -3.97908 24.8569
rtibia 22.1946
rfoot -12.5011 1.97817
rtoes 0.277402
lfemur -19.8446 -0.627018 -16.4181
ltibia 55.7778
lfoot -2.95624 -9.3992
ltoes -3.44638
182
root -7.04111 17.9455 8.68878 -10.4389 56.6332 -9.0032
lowerback 12.1608 1.99906 1.87617
upperback 1.35938 3.00726 1.14668
thorax -5.35347 1.46673 -0.353385
lowerneck -19.6858 -5.9977 -11.6793
upperneck 28.2999 -6.46189 6.53478
head 13.4729 -3.13342 3.44224
rclavicle -1.06101e-014 1.74931e-014
rhumerus -30.1537 -13.7807 -78.3905
rradius 25.0538
rwrist 11.229
rhand -15.9313 8.86286
rfingers 7.12502
rthumb 10.2664 -20.8666
lclavicle -1.06101e-014 1.74931e-014
lhumerus -35.9891 12.7164 76.444
lradius 29.1989
lwrist -8.61701
lhand -16.1018 26.1145
lfingers 7.12502
lthumb 10.102 55.852
rfemur -1.30763 -3.90032 25.0175
rtibia 22.2835
rfoot -12.8294 1.51588
rtoes 0.404519
lfemur -20.5026 -0.457623 -16.3406
ltibia 54.7546
lfoot -3.84306 -8.48504
ltoes -6.4022
183
root -6.9512 17.9464 8.7534 -10.3779 57.0315 -8.98586
lowerback 12.2085 2.09088 1.91535
upperback 1.31083 3.13451 1.11775
thorax -5.4253 1.52672 -0.429488
lowerneck -19.5192 -5.99525 -11.8221
upperneck 28.2194 -6.43985 6.59023
head 13.4105 -3.13285 3.49319
rclavicle -7.90169e-015 -1.78906e-015
rhumerus -29.9712 -13.4877 -78.3417
rradius 25.3827
rwrist 10.7482
rhand -15.9076 8.38593
rfingers 7.12502
rthumb 10.2893 -21.3424
lclavicle -7.90169e-015 -1.78906e-015
lhumerus -36.2231 12.9975 76.1698
lradius 29.2897
lwrist -8.9959
lhand -15.019 25.0792
lfingers 7.12502
lthumb 11.1464 54.7631
rfemur -0.907776 -4.14857 24.9531
rtibia 22.2817
rfoot -12.9221 1.35279
rtoes 0.0951283
lfemur -21.0226 -0.346344 -16.4468
ltibia 53.513
lfoot -4.41528 -7.50305
ltoes -8.01239
184
root -6.85816 17.9572 8.81371 -10.2397 57.4002 -8.88204
lowerback 12.2247 2.16366 1.9023
upperback 1.28768 3.22899 1.09996
thorax -5.45667 1.57261 -0.457546
lowerneck -19.6628 -5.95477 -12.1937
upperneck 28.5404 -6.3573 6.96561
head 13.5981 -3.08494 3.73107
rclavicle -3.13334e-014 -1.41137e-014
rhumerus -29.7421 -13.0584 -78.3017
rradius 25.6955
rwrist 10.4511
rhand -16.0363 8.17837
rfingers 7.12502
rthumb 10.1651 -21.5561
lclavicle -3.13334e-014 -1.41137e-014
lhumerus -36.4014 13.1915 76.0179
lradius 29.4473
lwrist -9.20245
lhand -14.0223 24.8395
lfingers 7.12502
lthumb 12.1076 54.4691
rfemur -0.519885 -4.5345 24.8088
rtibia 22.3633
rfoot -12.9646 1.28788
rtoes 0.810791
lfemur -21.4492 -0.226755 -16.6156
ltibia 52.0425
lfoot -4.58597 -6.65891
ltoes -6.6922
185
root -6.77045 17.9596 8.89658 -11.3695 57.6125 -10.0064
lowerback 12.37 2.21983 2.32058
upperback 1.34344 3.37715 1.28285
thorax -5.4634 1.63956 -0.530016
lowerneck -20.1463 -5.90965 -12.6005
upperneck 29.2556 -6.32108 7.64294
head 14.0488 -3.01763 4.10563
rclavicle 1.06598e-014 -3.97569e-015
rhumerus -29.5269 -12.7802 -78.2552
rradius 25.9971
rwrist 10.0952
rhand -15.8495 8.15504
rfingers 7.12502
rthumb 10.3453 -21.5705
lclavicle 1.06598e-014 -3.97569e-015
lhumerus -36.5099 13.0503 76.0257
lradius 29.6382
lwrist -8.46956
lhand -14.7737 25.8668
lfingers 7.12502
lthumb 11.383 55.5378
rfemur 0.122876 -4.27482 25.5706
rtibia 22.3758
rfoot -13.3167 0.375202
rtoes 0.223946
lfemur -21.6412 0.0803699 -15.9295
ltibia 50.4777
lfoot -4.79395 -6.14184
ltoes -3.93197
186
root -6.67812 17.958 8.95717 -11.2781 58.0179 -10.0274
lowerback 12.277 2.3002 2.3891
upperback 1.35193 3.48644 1.23177
thorax -5.39298 1.69242 -0.635137
lowerneck -20.4496 -5.90452 -12.687
upperneck 29.5721 -6.31484 7.84417
head 14.2641 -2.99291 4.21568
rclavicle -1.03865e-014 -1.88845e-014
rhumerus -29.2404 -12.7139 -78.1396
rradius 26.2657
rwrist 9.81633
rhand -15.7446 8.28888
rfingers 7.12502
rthumb 10.4466 -21.4316
lclavicle -1.03865e-014 -1.88845e-014
lhumerus -36.498 13.0899 76.1022
lradius 29.6819
lwrist -7.61615
lhand -16.1893 26.5049
lfingers 7.12502
lthumb 10.0175 56.2465
rfemur 0.488884 -4.41268 25.5206
rtibia 22.2263
rfoot -13.6482 -0.0994029
rtoes -1.08215
lfemur -22.0857 0.201125 -16.0205
ltibia 48.7703
lfoot -5.04997 -5.51099
ltoes -2.86402
187
root -6.58449 17.9588 9.01743 -11.4543 58.348 -10.337
lowerback 12.2253 2.39112 2.61391
upperback 1.34811 3.63675 1.24609
thorax -5.35165 1.76248 -0.767853
lowerneck -20.4434 -5.90342 -12.7226
upperneck 29.5261 -6.29136 7.83113
head 14.2406 -2.98726 4.21928
rclavicle -7.0494e-014 -1.59028e-015
rhumerus -29.0036 -12.5176 -78.0187
rradius 26.5439
rwrist 9.68455
rhand -15.9317 8.34862
rfingers 7.12502
rthumb 10.266 -21.3808
lclavicle -7.0494e-014 -1.59028e-015
lhumerus -36.5537 12.8966 76.3556
lradius 29.8162
lwrist -6.70141
lhand -16.0309 26.2959
lfingers 7.12502
lthumb 10.1704 56.03
rfemur 0.983231 -4.55461 25.6567
rtibia 21.8652
rfoot -13.679 -0.330655
rtoes -1.65357
lfemur -22.4547 0.31261 -15.9403
ltibia 46.9782
lfoot -5.49504 -4.90116
ltoes -4.00672
188
root -6.4911 17.9591 9.08198 -11.7156 58.5981 -10.7211
lowerback 12.1887 2.48757 2.80646
upperback 1.33215 3.79101 1.26719
thorax -5.3329 1.83476 -0.876801
lowerneck -20.4226 -5.85877 -12.5384
upperneck 29.4993 -6.24888 7.70546
head 14.2049 -2.96368 4.1428
rclavicle -1.73937e-015 -1.21259e-014
rhumerus -28.7515 -12.1906 -77.9893
rradius 26.777
rwrist 9.44516
rhand -16.0474 8.32154
rfingers 7.12502
rthumb 10.1544 -21.4134
lclavicle -1.73937e-015 -1.21259e-014
lhumerus -36.6885 12.4428 76.6556
lradius 30.0671
lwrist -5.39098
lhand -14.6315 25.4355
lfingers 7.12502
lthumb 11.5201 55.0989
rfemur 1.49399 -4.46945 25.8995
rtibia 21.5439
rfoot -13.6732 -0.723572
rtoes -2.50422
lfemur -22.6777 0.417799 -15.7734
ltibia 45.0132
lfoot -5.77601 -4.13856
ltoes -3.66748
189
root -6.39636 17.9591 9.1464 -11.8924 58.8792 -11.0192
lowerback 12.1937 2.55402 2.94889
upperback 1.27619 3.89819 1.24497
thorax -5.38026 1.88249 -0.998587
lowerneck -20.4284 -5.81751 -12.3646
upperneck 29.5151 -6.22943 7.64949
head 14.1999 -2.94166 4.0944
rclavicle -4.47266e-016 2.38542e-015
rhumerus -28.5401 -11.7031 -78.0716
rradius 27.0775
rwrist 8.9046
rhand -16.0602 8.20205
rfingers 7.12502
rthumb 10.1421 -21.5335
lclavicle -4.47266e-016 2.38542e-015
lhumerus -36.8506 12.656 76.5235
lradius 30.0841
lwrist -5.13533
lhand -13.9219 24.6724
lfingers 7.12502
lthumb 12.2044 54.2964
rfemur 2.01095 -4.42427 26.0908
rtibia 21.1682
rfoot -13.6085 -1.24929
rtoes -3.78246
lfemur -22.8349 0.42213 -15.6512
ltibia 42.9187
lfoot -5.93344 -3.25349
ltoes -3.62991
190
root -6.30237 17.9587 9.2047 -11.7747 59.2537 -11.0426
lowerback 12.2327 2.60329 3.05731
upperback 1.16634 3.97551 1.14977
thorax -5.50089 1.91277 -1.1764
lowerneck -20.4299 -5.8052 -12.6187
upperneck 29.6028 -6.23925 8.01422
head 14.266 -2.92439 4.29314
rclavicle -1.2424e-014 -2.20651e-014
rhumerus -28.4202 -11.3551 -78.0967
rradius 27.4544
rwrist 8.50958
rhand -15.8848 7.98813
rfingers 7.12502
rthumb 10.3113 -21.7391
lclavicle -1.2424e-014 -2.20651e-014
lhumerus -37.0959 13.1904 76.1313
lradius 30.0834
lwrist -6.10086
lhand -14.6804 25.6224
lfingers 7.12502
lthumb 11.473 55.2884
rfemur 2.46025 -4.33035 26.1187
rtibia 20.7471
rfoot -13.5408 -1.80998
rtoes -4.22728
lfemur -23.0161 0.271288 -15.7028
ltibia 40.7011
lfoot -6.00619 -2.35106
ltoes -4.58655
